<svg xmlns="http://www.w3.org/2000/svg" xmlns:xlink="http://www.w3.org/1999/xlink" width="200" zoomAndPan="magnify" viewBox="0 0 150 74.999997" height="100" preserveAspectRatio="xMidYMid meet" version="1.2"><defs><clipPath id="673fc9c5c5"><path d="M 55 26 L 92 26 L 92 56.832031 L 55 56.832031 Z M 55 26 "/></clipPath><clipPath id="f19a361122"><path d="M 51.148438 24 L 58 24 L 58 30 L 51.148438 30 Z M 51.148438 24 "/></clipPath><clipPath id="b2ce24089d"><path d="M 71 17.832031 L 77 17.832031 L 77 26 L 71 26 Z M 71 17.832031 "/></clipPath></defs><g id="16e15d769f"><g clip-rule="nonzero" clip-path="url(#673fc9c5c5)"><path style=" stroke:none;fill-rule:nonzero;fill:#473c38;fill-opacity:1;" d="M 74.144531 56.074219 C 73.59375 55.988281 73.039062 55.90625 72.597656 55.738281 C 72.042969 55.574219 71.933594 55.574219 71.820312 55.574219 C 71.046875 55.738281 70.492188 55.320312 70.054688 54.566406 C 69.976562 54.414062 69.902344 54.234375 69.828125 54.046875 L 69.820312 54.046875 C 70.925781 49.640625 70.453125 44.179688 68.597656 40.054688 C 70.402344 37.863281 73.070312 36.242188 76.621094 35.449219 C 76.820312 35.410156 77.03125 35.367188 77.234375 35.332031 C 77.238281 35.34375 77.246094 35.367188 77.246094 35.367188 C 77.289062 35.351562 77.328125 35.324219 77.371094 35.308594 C 81.996094 34.445312 86.867188 33.511719 91.164062 31.488281 C 87.832031 32.445312 84.367188 32.667969 80.949219 33.039062 C 83.175781 31.113281 84.851562 28.589844 86.230469 26 C 83.867188 29.289062 80.664062 32.640625 76.714844 33.640625 C 76.714844 33.640625 76.71875 33.652344 76.71875 33.652344 C 75.863281 33.816406 75.011719 34.019531 74.171875 34.269531 C 75.542969 32.039062 77.628906 30.085938 79.449219 28.25 C 76.21875 29.585938 73.0625 31.839844 71.6875 35.179688 C 71.542969 35.242188 71.390625 35.285156 71.246094 35.351562 C 69.769531 36.015625 68.542969 36.929688 67.523438 37.996094 C 67.054688 37.222656 66.523438 36.492188 65.949219 35.800781 C 66.253906 32.09375 68.070312 28.6875 71.09375 26.375 C 67.734375 27.550781 65.300781 30.722656 64.425781 34.179688 C 62.675781 32.570312 60.570312 31.335938 58.128906 30.652344 C 61.808594 32.875 64.445312 36.089844 66.101562 39.773438 C 63.578125 43.660156 63.230469 49.523438 64.628906 54.042969 L 64.617188 54.042969 C 64.621094 54.449219 64.636719 54.871094 64.636719 55.402344 C 64.527344 54.980469 64.414062 54.480469 64.414062 54.308594 C 63.972656 55.148438 62.925781 55.652344 61.097656 55.820312 C 60.4375 55.90625 58.832031 56.15625 58.28125 56.15625 C 56.898438 56.070312 57.066406 56.070312 55.738281 56.574219 C 55.570312 56.660156 55.40625 56.742188 55.183594 56.828125 L 78.238281 56.828125 C 78.015625 56.742188 77.792969 56.660156 77.628906 56.574219 C 75.75 55.488281 76.464844 56.410156 74.144531 56.074219 Z M 67.277344 55.335938 C 65.269531 53.140625 65.445312 44.429688 67.246094 42.402344 C 69.398438 46.875 68.101562 54.761719 67.277344 55.335938 Z M 67.277344 55.335938 "/></g><path style=" stroke:none;fill-rule:nonzero;fill:#628474;fill-opacity:1;" d="M 82.09375 26.863281 C 82.09375 26.863281 82.199219 25.730469 83.890625 25.144531 C 84.851562 24.808594 85.796875 24.230469 86.351562 23.359375 C 86.625 22.929688 86.789062 22.4375 86.808594 21.929688 C 86.835938 21.363281 86.703125 20.761719 87.148438 20.3125 C 87.148438 20.3125 83.519531 19.085938 81.679688 22.480469 C 81.683594 22.476562 80.734375 24.292969 82.09375 26.863281 Z M 82.09375 26.863281 "/><path style=" stroke:none;fill-rule:nonzero;fill:#628474;fill-opacity:1;" d="M 68.105469 32.613281 C 68.105469 32.613281 68.464844 32.128906 69.386719 32.324219 C 69.910156 32.4375 70.492188 32.429688 70.980469 32.191406 C 71.222656 32.070312 71.429688 31.894531 71.578125 31.671875 C 71.742188 31.421875 71.847656 31.117188 72.171875 31.035156 C 72.171875 31.035156 70.871094 29.492188 69.117188 30.519531 C 69.117188 30.523438 68.195312 31.082031 68.105469 32.613281 Z M 68.105469 32.613281 "/><path style=" stroke:none;fill-rule:nonzero;fill:#628474;fill-opacity:1;" d="M 71.65625 29.050781 C 71.65625 29.050781 72.011719 28.570312 72.933594 28.765625 C 73.460938 28.878906 74.042969 28.871094 74.53125 28.632812 C 74.773438 28.511719 74.976562 28.335938 75.128906 28.113281 C 75.292969 27.863281 75.398438 27.558594 75.722656 27.476562 C 75.722656 27.476562 74.417969 25.933594 72.664062 26.960938 C 72.664062 26.964844 71.742188 27.523438 71.65625 29.050781 Z M 71.65625 29.050781 "/><path style=" stroke:none;fill-rule:nonzero;fill:#628474;fill-opacity:1;" d="M 61.613281 36.371094 C 61.613281 36.371094 60.929688 36.214844 60.253906 37.097656 C 59.875 37.59375 59.351562 38.035156 58.730469 38.195312 C 58.425781 38.273438 58.105469 38.273438 57.800781 38.1875 C 57.464844 38.09375 57.140625 37.898438 56.785156 38.070312 C 56.785156 38.070312 56.769531 35.707031 59.117188 35.285156 C 59.117188 35.28125 60.367188 35.074219 61.613281 36.371094 Z M 61.613281 36.371094 "/><path style=" stroke:none;fill-rule:nonzero;fill:#628474;fill-opacity:1;" d="M 57.210938 33.609375 C 57.210938 33.609375 56.527344 33.449219 55.851562 34.332031 C 55.472656 34.828125 54.949219 35.269531 54.328125 35.429688 C 54.023438 35.507812 53.703125 35.507812 53.398438 35.421875 C 53.0625 35.328125 52.738281 35.132812 52.382812 35.308594 C 52.382812 35.308594 52.367188 32.941406 54.714844 32.519531 C 54.714844 32.515625 55.964844 32.3125 57.210938 33.609375 Z M 57.210938 33.609375 "/><path style=" stroke:none;fill-rule:nonzero;fill:#628474;fill-opacity:1;" d="M 66.207031 26.261719 C 66.207031 26.261719 66.273438 25.5625 67.320312 25.199219 C 67.914062 24.996094 68.496094 24.632812 68.84375 24.09375 C 69.011719 23.828125 69.113281 23.523438 69.125 23.210938 C 69.140625 22.859375 69.058594 22.488281 69.332031 22.210938 C 69.332031 22.210938 67.089844 21.453125 65.953125 23.546875 C 65.953125 23.550781 65.363281 24.671875 66.207031 26.261719 Z M 66.207031 26.261719 "/><path style=" stroke:none;fill-rule:nonzero;fill:#628474;fill-opacity:1;" d="M 89.152344 24.167969 C 89.152344 24.167969 87.304688 20.835938 91.144531 19.65625 C 91.144531 19.65625 92.914062 22.777344 89.152344 24.167969 Z M 89.152344 24.167969 "/><path style=" stroke:none;fill-rule:nonzero;fill:#628474;fill-opacity:1;" d="M 78.472656 26.605469 C 78.472656 26.605469 75.847656 23.835938 79.273438 21.738281 C 79.273438 21.734375 81.765625 24.3125 78.472656 26.605469 Z M 78.472656 26.605469 "/><path style=" stroke:none;fill-rule:nonzero;fill:#628474;fill-opacity:1;" d="M 92.417969 31.828125 C 92.417969 31.828125 93.238281 31.574219 94.132812 32.585938 C 94.644531 33.15625 95.320312 33.644531 96.089844 33.785156 C 96.46875 33.855469 96.859375 33.828125 97.21875 33.691406 C 97.621094 33.546875 98 33.28125 98.445312 33.460938 C 98.445312 33.460938 98.25 30.578125 95.351562 30.273438 C 95.359375 30.273438 93.816406 30.136719 92.417969 31.828125 Z M 92.417969 31.828125 "/><path style=" stroke:none;fill-rule:nonzero;fill:#628474;fill-opacity:1;" d="M 89.199219 34 C 89.199219 34 89.9375 34.226562 90.097656 35.425781 C 90.1875 36.109375 90.445312 36.816406 90.945312 37.304688 C 91.191406 37.542969 91.496094 37.71875 91.832031 37.800781 C 92.207031 37.894531 92.621094 37.886719 92.859375 38.246094 C 92.859375 38.246094 94.167969 36.003906 92.167969 34.320312 C 92.164062 34.324219 91.089844 33.449219 89.199219 34 Z M 89.199219 34 "/><path style=" stroke:none;fill-rule:nonzero;fill:#628474;fill-opacity:1;" d="M 84.613281 35.441406 C 84.613281 35.441406 85.191406 35.789062 85.074219 36.84375 C 85.003906 37.445312 85.078125 38.097656 85.402344 38.621094 C 85.5625 38.878906 85.78125 39.09375 86.050781 39.230469 C 86.347656 39.390625 86.703125 39.472656 86.832031 39.828125 C 86.832031 39.828125 88.414062 38.199219 87.066406 36.339844 C 87.070312 36.34375 86.335938 35.371094 84.613281 35.441406 Z M 84.613281 35.441406 "/><path style=" stroke:none;fill-rule:nonzero;fill:#628474;fill-opacity:1;" d="M 89.277344 28.707031 C 89.277344 28.707031 90.039062 21.617188 97.179688 23.949219 C 97.183594 23.949219 96.535156 30.621094 89.277344 28.707031 Z M 89.277344 28.707031 "/><path style=" stroke:none;fill-rule:nonzero;fill:#628474;fill-opacity:1;" d="M 63.324219 29.75 C 63.324219 29.75 56.886719 27.699219 60.394531 21.511719 C 60.394531 21.511719 66.46875 23.371094 63.324219 29.75 Z M 63.324219 29.75 "/><g clip-rule="nonzero" clip-path="url(#f19a361122)"><path style=" stroke:none;fill-rule:nonzero;fill:#628474;fill-opacity:1;" d="M 57.210938 29.816406 C 57.210938 29.816406 51.148438 30.738281 51.519531 24.289062 C 51.519531 24.292969 57.207031 23.363281 57.210938 29.816406 Z M 57.210938 29.816406 "/></g><g clip-rule="nonzero" clip-path="url(#b2ce24089d)"><path style=" stroke:none;fill-rule:nonzero;fill:#628474;fill-opacity:1;" d="M 71.359375 25.1875 C 71.359375 25.1875 69.246094 18.570312 76.523438 17.835938 C 76.527344 17.835938 78.578125 24.035156 71.359375 25.1875 Z M 71.359375 25.1875 "/></g></g></svg>